<svg xmlns="http://www.w3.org/2000/svg" x="0px" y="0px"
width="96" height="96"
viewBox="0 0 96 96"
style="enable-background:new 0 0 96 96;; fill:#000000;"><path xmlns="http://www.w3.org/2000/svg" style="fill:#5D4037;" d="M 42 17.3 C 42 37.8 24 44 24 44 S 6 37.8 6 17.3 c 0 -2.5 0.2 -4.6 0.4 -6.3 c 0.3 -2.5 2 -4.5 4.4 -5.1 C 13.9 5 18.8 4 24 4 s 10.1 1 13.3 1.9 c 2.4 0.6 4.1 2.7 4.4 5.1 C 41.8 12.7 42 14.9 42 17.3 Z" /><path xmlns="http://www.w3.org/2000/svg" style="fill:#4CAF50;" d="M 24 7 c 4.9 0 9.5 1 12.5 1.8 c 1.2 0.3 2 1.3 2.2 2.6 c 0.2 1.9 0.3 3.9 0.3 5.9 c 0 15.6 -11.5 21.9 -15 23.4 c -3.5 -1.6 -15 -7.9 -15 -23.4 c 0 -2 0.1 -4 0.3 -5.9 c 0.1 -1.3 1 -2.3 2.2 -2.6 C 14.5 8 19.1 7 24 7 M 24 4 c -5.2 0 -10.1 1 -13.3 1.9 C 8.4 6.5 6.6 8.6 6.4 11 C 6.2 12.7 6 14.9 6 17.3 C 6 37.8 24 44 24 44 s 18 -6.2 18 -26.7 c 0 -2.5 -0.2 -4.6 -0.4 -6.3 c -0.3 -2.5 -2 -4.5 -4.4 -5.1 C 34.1 5 29.2 4 24 4 L 24 4 Z" /><rect xmlns="http://www.w3.org/2000/svg" style="fill:#DCEDC8;" x="23" y="28" width="2" height="8" /><path xmlns="http://www.w3.org/2000/svg" style="fill:#4CAF50;" d="M 24 10 c 0 0 -6 5 -6 13 c 0 5.2 3.3 8.5 5 10 l 1 -3 l 1 3 c 1.7 -1.5 5 -4.8 5 -10 C 30 15 24 10 24 10 Z" /><path xmlns="http://www.w3.org/2000/svg" style="fill:#81C784;" d="M 24 10 c 0 0 -6 5 -6 13 c 0 5.2 3.3 8.5 5 10 l 1 -3 V 10 Z" /></svg>